<svg width="972" height="369" viewBox="0 0 972 369" fill="none" xmlns="http://www.w3.org/2000/svg">
<path d="M956.361 362.072H958.038C959.962 362.072 961.34 361.825 962.172 361.331C963.004 360.837 963.42 360.044 963.42 358.952C963.42 357.86 963.004 357.067 962.172 356.573C961.34 356.079 959.962 355.832 958.038 355.832H956.361V362.072ZM956.361 350.138H957.765C960.157 350.138 961.353 349.189 961.353 347.291C961.353 345.393 960.157 344.444 957.765 344.444H956.361V350.138ZM948.717 338.594H960.105C962.809 338.594 964.863 339.244 966.267 340.544C967.671 341.844 968.373 343.716 968.373 346.16C968.373 347.642 968.1 348.877 967.554 349.865C967.034 350.827 966.228 351.646 965.136 352.322C966.228 352.53 967.151 352.855 967.905 353.297C968.685 353.713 969.309 354.233 969.777 354.857C970.271 355.481 970.622 356.183 970.83 356.963C971.038 357.743 971.142 358.575 971.142 359.459C971.142 360.837 970.895 362.059 970.401 363.125C969.933 364.191 969.257 365.088 968.373 365.816C967.515 366.544 966.462 367.09 965.214 367.454C963.966 367.818 962.562 368 961.002 368H948.717V338.594Z" fill="#4B3E36"/>
<path d="M924.559 338.594V354.584C924.559 355.442 924.585 356.326 924.637 357.236C924.715 358.12 924.91 358.926 925.222 359.654C925.56 360.382 926.08 360.98 926.782 361.448C927.484 361.89 928.472 362.111 929.746 362.111C931.02 362.111 931.995 361.89 932.671 361.448C933.373 360.98 933.893 360.382 934.231 359.654C934.569 358.926 934.764 358.12 934.816 357.236C934.894 356.326 934.933 355.442 934.933 354.584V338.594H942.538V355.637C942.538 360.213 941.485 363.554 939.379 365.66C937.299 367.766 934.088 368.819 929.746 368.819C925.404 368.819 922.18 367.766 920.074 365.66C917.968 363.554 916.915 360.213 916.915 355.637V338.594H924.559Z" fill="#4B3E36"/>
<path d="M904.335 338.594V361.526H913.5V368H896.691V338.594H904.335Z" fill="#4B3E36"/>
<path d="M891.856 348.422C890.088 346.264 887.904 345.185 885.304 345.185C884.16 345.185 883.094 345.393 882.106 345.809C881.144 346.225 880.312 346.797 879.61 347.525C878.908 348.227 878.349 349.072 877.933 350.06C877.543 351.048 877.348 352.114 877.348 353.258C877.348 354.428 877.543 355.507 877.933 356.495C878.349 357.483 878.908 358.341 879.61 359.069C880.338 359.797 881.183 360.369 882.145 360.785C883.107 361.201 884.147 361.409 885.265 361.409C887.709 361.409 889.906 360.369 891.856 358.289V367.337L891.076 367.61C889.906 368.026 888.814 368.325 887.8 368.507C886.786 368.715 885.785 368.819 884.797 368.819C882.769 368.819 880.819 368.442 878.947 367.688C877.101 366.908 875.463 365.829 874.033 364.451C872.629 363.047 871.498 361.396 870.64 359.498C869.782 357.574 869.353 355.481 869.353 353.219C869.353 350.957 869.769 348.89 870.601 347.018C871.459 345.12 872.59 343.495 873.994 342.143C875.424 340.765 877.075 339.699 878.947 338.945C880.819 338.165 882.782 337.775 884.836 337.775C886.006 337.775 887.15 337.905 888.268 338.165C889.412 338.399 890.608 338.776 891.856 339.296V348.422Z" fill="#4B3E36"/>
<path d="M828.026 353.297C828.026 354.467 828.247 355.546 828.689 356.534C829.131 357.522 829.729 358.38 830.483 359.108C831.237 359.836 832.108 360.408 833.096 360.824C834.11 361.214 835.176 361.409 836.294 361.409C837.412 361.409 838.465 361.214 839.453 360.824C840.467 360.408 841.351 359.836 842.105 359.108C842.885 358.38 843.496 357.522 843.938 356.534C844.38 355.546 844.601 354.467 844.601 353.297C844.601 352.127 844.38 351.048 843.938 350.06C843.496 349.072 842.885 348.214 842.105 347.486C841.351 346.758 840.467 346.199 839.453 345.809C838.465 345.393 837.412 345.185 836.294 345.185C835.176 345.185 834.11 345.393 833.096 345.809C832.108 346.199 831.237 346.758 830.483 347.486C829.729 348.214 829.131 349.072 828.689 350.06C828.247 351.048 828.026 352.127 828.026 353.297ZM820.031 353.297C820.031 351.113 820.434 349.085 821.24 347.213C822.046 345.315 823.164 343.664 824.594 342.26C826.024 340.856 827.727 339.764 829.703 338.984C831.705 338.178 833.902 337.775 836.294 337.775C838.66 337.775 840.844 338.178 842.846 338.984C844.848 339.764 846.564 340.856 847.994 342.26C849.45 343.664 850.581 345.315 851.387 347.213C852.193 349.085 852.596 351.113 852.596 353.297C852.596 355.481 852.193 357.522 851.387 359.42C850.581 361.292 849.45 362.93 847.994 364.334C846.564 365.738 844.848 366.843 842.846 367.649C840.844 368.429 838.66 368.819 836.294 368.819C833.902 368.819 831.705 368.429 829.703 367.649C827.727 366.843 826.024 365.738 824.594 364.334C823.164 362.93 822.046 361.292 821.24 359.42C820.434 357.522 820.031 355.481 820.031 353.297Z" fill="#4B3E36"/>
<path d="M815.214 338.594V368H807.57V338.594H815.214Z" fill="#4B3E36"/>
<path d="M784.555 361.526H786.31C787.636 361.526 788.819 361.318 789.859 360.902C790.899 360.486 791.77 359.914 792.472 359.186C793.2 358.458 793.746 357.6 794.11 356.612C794.5 355.598 794.695 354.493 794.695 353.297C794.695 352.127 794.5 351.035 794.11 350.021C793.72 349.007 793.161 348.136 792.433 347.408C791.731 346.68 790.86 346.108 789.82 345.692C788.78 345.276 787.61 345.068 786.31 345.068H784.555V361.526ZM776.911 338.594H788.221C790.223 338.594 792.095 338.997 793.837 339.803C795.605 340.609 797.139 341.688 798.439 343.04C799.765 344.366 800.805 345.926 801.559 347.72C802.313 349.488 802.69 351.347 802.69 353.297C802.69 355.221 802.313 357.08 801.559 358.874C800.831 360.642 799.804 362.202 798.478 363.554C797.178 364.906 795.644 365.985 793.876 366.791C792.134 367.597 790.249 368 788.221 368H776.911V338.594Z" fill="#4B3E36"/>
<path d="M761.632 357.08L758.2 347.291L754.768 357.08H761.632ZM763.66 362.891H752.74L750.985 368H742.834L754.027 338.594H762.373L773.566 368H765.415L763.66 362.891Z" fill="#4B3E36"/>
<path d="M725.636 351.737H727.079C728.587 351.737 729.744 351.425 730.55 350.801C731.356 350.177 731.759 349.28 731.759 348.11C731.759 346.94 731.356 346.043 730.55 345.419C729.744 344.795 728.587 344.483 727.079 344.483H725.636V351.737ZM742.445 368H732.929L725.636 356.69V368H717.992V338.594H729.887C731.525 338.594 732.955 338.841 734.177 339.335C735.399 339.803 736.4 340.453 737.18 341.285C737.986 342.117 738.584 343.079 738.974 344.171C739.39 345.263 739.598 346.433 739.598 347.681C739.598 349.917 739.052 351.737 737.96 353.141C736.894 354.519 735.308 355.455 733.202 355.949L742.445 368Z" fill="#4B3E36"/>
<path d="M684.732 351.737H686.175C687.683 351.737 688.84 351.425 689.646 350.801C690.452 350.177 690.855 349.28 690.855 348.11C690.855 346.94 690.452 346.043 689.646 345.419C688.84 344.795 687.683 344.483 686.175 344.483H684.732V351.737ZM701.541 368H692.025L684.732 356.69V368H677.088V338.594H688.983C690.621 338.594 692.051 338.841 693.273 339.335C694.495 339.803 695.496 340.453 696.276 341.285C697.082 342.117 697.68 343.079 698.07 344.171C698.486 345.263 698.694 346.433 698.694 347.681C698.694 349.917 698.148 351.737 697.056 353.141C695.99 354.519 694.404 355.455 692.298 355.949L701.541 368Z" fill="#4B3E36"/>
<path d="M652.93 338.594V354.584C652.93 355.442 652.956 356.326 653.008 357.236C653.086 358.12 653.281 358.926 653.593 359.654C653.931 360.382 654.451 360.98 655.153 361.448C655.855 361.89 656.843 362.111 658.117 362.111C659.391 362.111 660.366 361.89 661.042 361.448C661.744 360.98 662.264 360.382 662.602 359.654C662.94 358.926 663.135 358.12 663.187 357.236C663.265 356.326 663.304 355.442 663.304 354.584V338.594H670.909V355.637C670.909 360.213 669.856 363.554 667.75 365.66C665.67 367.766 662.459 368.819 658.117 368.819C653.775 368.819 650.551 367.766 648.445 365.66C646.339 363.554 645.286 360.213 645.286 355.637V338.594H652.93Z" fill="#4B3E36"/>
<path d="M639.775 345.068H630.688V349.982H639.268V356.456H630.688V361.526H639.775V368H623.044V338.594H639.775V345.068Z" fill="#4B3E36"/>
<path d="M613.365 345.068V368H605.721V345.068H599.442V338.594H619.644V345.068H613.365Z" fill="#4B3E36"/>
<path d="M588.227 357.08L584.795 347.291L581.363 357.08H588.227ZM590.255 362.891H579.335L577.58 368H569.429L580.622 338.594H588.968L600.161 368H592.01L590.255 362.891Z" fill="#4B3E36"/>
<path d="M530.54 368L535.532 338.594H543.098L548.987 354.272L554.837 338.594H562.403L567.395 368H559.79L557.255 351.074L550.313 368H547.271L540.68 351.074L538.145 368H530.54Z" fill="#4B3E36"/>
<path d="M516.588 357.08L513.156 347.291L509.724 357.08H516.588ZM518.616 362.891H507.696L505.941 368H497.79L508.983 338.594H517.329L528.522 368H520.371L518.616 362.891Z" fill="#4B3E36"/>
<path d="M466.258 353.882L455.533 338.594H464.659L470.119 346.628L475.54 338.594H484.666L473.902 353.882V368H466.258V353.882Z" fill="#4B3E36"/>
<path d="M447.577 345.068V368H439.933V345.068H433.654V338.594H453.856V345.068H447.577Z" fill="#4B3E36"/>
<path d="M400.889 368V338.594H408.533L422.651 356.573V338.594H430.256V368H422.651L408.533 350.021V368H400.889Z" fill="#4B3E36"/>
<path d="M376.731 338.594V354.584C376.731 355.442 376.757 356.326 376.809 357.236C376.887 358.12 377.082 358.926 377.394 359.654C377.732 360.382 378.252 360.98 378.954 361.448C379.656 361.89 380.644 362.111 381.918 362.111C383.192 362.111 384.167 361.89 384.843 361.448C385.545 360.98 386.065 360.382 386.403 359.654C386.741 358.926 386.936 358.12 386.988 357.236C387.066 356.326 387.105 355.442 387.105 354.584V338.594H394.71V355.637C394.71 360.213 393.657 363.554 391.551 365.66C389.471 367.766 386.26 368.819 381.918 368.819C377.576 368.819 374.352 367.766 372.246 365.66C370.14 363.554 369.087 360.213 369.087 355.637V338.594H376.731Z" fill="#4B3E36"/>
<path d="M339.688 353.297C339.688 354.467 339.909 355.546 340.351 356.534C340.793 357.522 341.391 358.38 342.145 359.108C342.899 359.836 343.77 360.408 344.758 360.824C345.772 361.214 346.838 361.409 347.956 361.409C349.074 361.409 350.127 361.214 351.115 360.824C352.129 360.408 353.013 359.836 353.767 359.108C354.547 358.38 355.158 357.522 355.6 356.534C356.042 355.546 356.263 354.467 356.263 353.297C356.263 352.127 356.042 351.048 355.6 350.06C355.158 349.072 354.547 348.214 353.767 347.486C353.013 346.758 352.129 346.199 351.115 345.809C350.127 345.393 349.074 345.185 347.956 345.185C346.838 345.185 345.772 345.393 344.758 345.809C343.77 346.199 342.899 346.758 342.145 347.486C341.391 348.214 340.793 349.072 340.351 350.06C339.909 351.048 339.688 352.127 339.688 353.297ZM331.693 353.297C331.693 351.113 332.096 349.085 332.902 347.213C333.708 345.315 334.826 343.664 336.256 342.26C337.686 340.856 339.389 339.764 341.365 338.984C343.367 338.178 345.564 337.775 347.956 337.775C350.322 337.775 352.506 338.178 354.508 338.984C356.51 339.764 358.226 340.856 359.656 342.26C361.112 343.664 362.243 345.315 363.049 347.213C363.855 349.085 364.258 351.113 364.258 353.297C364.258 355.481 363.855 357.522 363.049 359.42C362.243 361.292 361.112 362.93 359.656 364.334C358.226 365.738 356.51 366.843 354.508 367.649C352.506 368.429 350.322 368.819 347.956 368.819C345.564 368.819 343.367 368.429 341.365 367.649C339.389 366.843 337.686 365.738 336.256 364.334C334.826 362.93 333.708 361.292 332.902 359.42C332.096 357.522 331.693 355.481 331.693 353.297Z" fill="#4B3E36"/>
<path d="M327.765 348.422C325.997 346.264 323.813 345.185 321.213 345.185C320.069 345.185 319.003 345.393 318.015 345.809C317.053 346.225 316.221 346.797 315.519 347.525C314.817 348.227 314.258 349.072 313.842 350.06C313.452 351.048 313.257 352.114 313.257 353.258C313.257 354.428 313.452 355.507 313.842 356.495C314.258 357.483 314.817 358.341 315.519 359.069C316.247 359.797 317.092 360.369 318.054 360.785C319.016 361.201 320.056 361.409 321.174 361.409C323.618 361.409 325.815 360.369 327.765 358.289V367.337L326.985 367.61C325.815 368.026 324.723 368.325 323.709 368.507C322.695 368.715 321.694 368.819 320.706 368.819C318.678 368.819 316.728 368.442 314.856 367.688C313.01 366.908 311.372 365.829 309.942 364.451C308.538 363.047 307.407 361.396 306.549 359.498C305.691 357.574 305.262 355.481 305.262 353.219C305.262 350.957 305.678 348.89 306.51 347.018C307.368 345.12 308.499 343.495 309.903 342.143C311.333 340.765 312.984 339.699 314.856 338.945C316.728 338.165 318.691 337.775 320.745 337.775C321.915 337.775 323.059 337.905 324.177 338.165C325.321 338.399 326.517 338.776 327.765 339.296V348.422Z" fill="#4B3E36"/>
<path d="M253.535 338.594L258.605 357.587L264.845 338.594H270.929L277.169 357.587L282.239 338.594H290.234L281.459 368H273.659L267.887 350.957L262.115 368H254.315L245.54 338.594H253.535Z" fill="#4B3E36"/>
<path d="M243.11 345.068H234.023V349.982H242.603V356.456H234.023V361.526H243.11V368H226.379V338.594H243.11V345.068Z" fill="#4B3E36"/>
<path d="M206.373 351.737H207.816C209.324 351.737 210.481 351.425 211.287 350.801C212.093 350.177 212.496 349.28 212.496 348.11C212.496 346.94 212.093 346.043 211.287 345.419C210.481 344.795 209.324 344.483 207.816 344.483H206.373V351.737ZM223.182 368H213.666L206.373 356.69V368H198.729V338.594H210.624C212.262 338.594 213.692 338.841 214.914 339.335C216.136 339.803 217.137 340.453 217.917 341.285C218.723 342.117 219.321 343.079 219.711 344.171C220.127 345.263 220.335 346.433 220.335 347.681C220.335 349.917 219.789 351.737 218.697 353.141C217.631 354.519 216.045 355.455 213.939 355.949L223.182 368Z" fill="#4B3E36"/>
<path d="M194.172 345.068H184.968V349.982H193.353V356.456H184.968V368H177.324V338.594H194.172V345.068Z" fill="#4B3E36"/>
<path d="M141.79 368V338.594H149.434L163.552 356.573V338.594H171.157V368H163.552L149.434 350.021V368H141.79Z" fill="#4B3E36"/>
<path d="M136.279 345.068H127.192V349.982H135.772V356.456H127.192V361.526H136.279V368H119.548V338.594H136.279V345.068Z" fill="#4B3E36"/>
<path d="M99.5415 351.737H100.984C102.492 351.737 103.649 351.425 104.455 350.801C105.261 350.177 105.664 349.28 105.664 348.11C105.664 346.94 105.261 346.043 104.455 345.419C103.649 344.795 102.492 344.483 100.984 344.483H99.5415V351.737ZM116.35 368H106.834L99.5415 356.69V368H91.8975V338.594H103.792C105.43 338.594 106.86 338.841 108.082 339.335C109.304 339.803 110.305 340.453 111.085 341.285C111.891 342.117 112.489 343.079 112.879 344.171C113.295 345.263 113.503 346.433 113.503 347.681C113.503 349.917 112.957 351.737 111.865 353.141C110.799 354.519 109.213 355.455 107.107 355.949L116.35 368Z" fill="#4B3E36"/>
<path d="M73.1324 345.068H64.0454V349.982H72.6254V356.456H64.0454V361.526H73.1324V368H56.4014V338.594H73.1324V345.068Z" fill="#4B3E36"/>
<path d="M31.5581 349.943H42.5951V338.594H50.2391V368H42.5951V355.871H31.5581V368H23.9141V338.594H31.5581V349.943Z" fill="#4B3E36"/>
<path d="M14.235 345.068V368H6.59101V345.068H0.312012V338.594H20.514V345.068H14.235Z" fill="#4B3E36"/>
<path fill-rule="evenodd" clip-rule="evenodd" d="M480.292 124.374C464.862 124.374 434 131.648 434 160.746V203.5L462 316.984H511.705V263.251H548.078V316.984H608.427V124.374H480.292ZM548.078 169.84H519.972C517.216 169.84 511.705 171.824 511.705 179.759V226.052H548.078V169.84Z" fill="#CB433F"/>
<path d="M244.996 124.374H338.407V167.36H284.675V278.131H324.5L315.5 316.984H242.516C212.756 316.984 200.356 290.531 200.356 274.824V174.8C200.356 144.379 216.889 124.374 244.996 124.374Z" fill="#CB433F"/>
<path d="M868.065 124.374H961.476V167.36H907.744V278.131H961.476V316.984H865.585C835.825 316.984 823.425 290.531 823.425 274.824V174.8C823.425 144.379 839.958 124.374 868.065 124.374Z" fill="#CB433F"/>
<path fill-rule="evenodd" clip-rule="evenodd" d="M143.531 124.374C163.37 124.374 186.517 139.088 186.517 171.493V190.506C187.619 205.11 183.375 234.318 157.584 234.318C167.228 235.421 186.517 244.734 186.517 273.171V316.984H103.852V251.678H73.2654V316.984H3V124.374H143.531ZM73.2654 168.186H97.2383C99.4427 168.186 103.852 169.344 103.852 173.973V211.172H73.2654V168.186Z" fill="#CB433F"/>
<path fill-rule="evenodd" clip-rule="evenodd" d="M765.531 124.374C785.37 124.374 808.517 139.088 808.517 171.493V190.506C809.619 205.11 805.375 234.318 779.584 234.318C789.228 235.421 808.517 244.734 808.517 273.171V316.984H725.852V251.678H695.265V316.984H625V124.374H765.531ZM695.265 168.186H719.238C721.443 168.186 725.852 169.344 725.852 173.973V211.172H695.265V168.186Z" fill="#CB433F"/>
<path d="M377.606 116.737L387.868 78.4004L397.446 116.737L387.184 110.496L377.606 116.737Z" fill="#CB433F"/>
<path d="M432.336 108.643L392.882 78.9209L422.543 91.3684L421.412 76.0837L458.37 114.693L430.47 95.685L432.336 108.643Z" fill="#CB433F"/>
<path d="M343.036 32.2524L384.316 65.9978L353.43 51.1875L354.828 67.5527L316 24.4551L345.161 46.1733L343.036 32.2524Z" fill="#CB433F"/>
<path d="M344.055 109.083L382.556 77.9551L351.678 91.4159L349.962 76.0278L316 116L343.619 96.0076L344.055 109.083Z" fill="#CB433F"/>
<path d="M431.885 30.9029L389.852 65.5046L421.798 50.3384L421.099 67.1478L460.095 22.9349L430.301 45.2002L431.885 30.9029Z" fill="#CB433F"/>
<path fill-rule="evenodd" clip-rule="evenodd" d="M376.22 123.092L375.168 127.481L387.206 135.242L399.654 126.994L398.82 123.63L387.31 116.263L376.22 123.092ZM370.684 146.189L373.846 132.999L382.333 138.471L370.684 146.189ZM368.856 153.817L367.797 158.234L387.601 170.914L407.398 158.239L406.334 153.943L387.241 141.635L368.856 153.817ZM360.617 188.191L366.476 163.748L382.635 174.094L360.617 188.191ZM358.816 195.704L357.91 199.483L387.601 217.712L417.578 199.307L416.741 195.931L387.601 177.274L358.816 195.704ZM347.663 242.233L356.595 204.97L382.475 220.86L347.663 242.233ZM345.894 249.614L344.667 254.732L387.866 281.707L431.221 254.349L430.18 250.149L387.601 224.007L345.894 249.614ZM329.506 317.983L343.349 260.23L382.832 284.884L330.378 317.983H329.506ZM446.994 317.983H445.962L392.914 284.858L432.579 259.828L446.994 317.983ZM418.932 204.771L428.339 242.724L392.728 220.86L418.932 204.771ZM408.759 163.727L414.867 188.371L392.568 174.094L408.759 163.727ZM401.02 132.505L404.454 146.361L392.115 138.406L401.02 132.505Z" fill="#CB433F"/>
</svg>
